<?xml version="1.0" standalone="no"?>
<!DOCTYPE svg PUBLIC "-//W3C//DTD SVG 20010904//EN"
 "http://www.w3.org/TR/2001/REC-SVG-20010904/DTD/svg10.dtd">
<svg version="1.0" xmlns="http://www.w3.org/2000/svg"
 width="500.000000pt" height="500.000000pt" viewBox="0 0 500.000000 500.000000"
 preserveAspectRatio="xMidYMid meet">

<g transform="translate(0.000000,500.000000) scale(0.100000,-0.100000)"
fill="#000000" stroke="none">
<path d="M2480 3160 c0 -563 0 -570 20 -570 20 0 20 7 20 570 0 563 0 570 -20
570 -20 0 -20 -7 -20 -570z"/>
<path d="M1120 3375 c-301 -64 -465 -250 -447 -509 6 -91 23 -147 69 -223 l32
-53 410 0 409 0 -89 62 c-222 152 -312 242 -340 334 -40 134 6 257 119 316 34
18 59 22 132 22 77 1 98 -3 147 -26 161 -75 282 -275 313 -515 7 -50 8 -53 36
-53 l29 0 0 274 c0 150 3 294 6 320 7 46 7 46 -23 46 -27 0 -31 -4 -36 -37 -8
-44 -32 -83 -53 -83 -8 0 -54 20 -102 44 -162 80 -196 89 -382 92 -113 2 -185
-1 -230 -11z"/>
<path d="M3695 3374 c-394 -75 -675 -327 -770 -690 -27 -104 -56 -94 278 -94
l294 0 12 88 c32 237 100 401 215 518 78 78 134 106 237 119 169 21 364 -68
465 -213 41 -59 79 -191 99 -344 5 -41 9 -48 29 -48 23 0 23 1 29 188 4 103 7
249 7 325 l0 137 -24 0 c-21 0 -25 -6 -31 -49 -8 -57 -38 -111 -62 -111 -9 0
-53 24 -97 54 -158 106 -264 136 -470 135 -78 -1 -172 -7 -211 -15z"/>
<path d="M670 2063 c0 -60 -3 -213 -7 -340 l-6 -233 26 0 c23 0 28 6 38 46 18
70 41 76 136 31 171 -80 287 -101 507 -94 258 8 413 62 536 186 125 126 162
269 119 464 l-11 47 -346 0 -346 0 60 -62 c78 -81 98 -110 123 -186 53 -155 6
-284 -127 -349 -52 -26 -67 -28 -167 -28 -103 0 -114 2 -177 32 -40 18 -85 51
-112 78 -83 87 -152 255 -178 429 -12 85 -12 86 -40 86 l-28 0 0 -107z"/>
<path d="M2480 1505 c0 -658 0 -665 20 -665 20 0 20 7 20 665 0 658 0 665 -20
665 -20 0 -20 -7 -20 -665z"/>
<path d="M2920 2154 c0 -79 91 -285 167 -379 161 -198 427 -305 758 -305 159
0 249 23 470 120 87 38 134 53 170 54 50 1 50 1 73 -44 12 -24 22 -57 22 -72
0 -23 4 -28 25 -28 l25 0 0 304 c0 167 3 318 6 335 l7 31 -287 0 c-157 0 -286
-1 -286 -2 0 -2 7 -21 15 -43 11 -30 14 -96 15 -270 0 -264 -5 -285 -75 -320
-60 -30 -167 -26 -237 8 -150 73 -239 257 -283 580 l-6 47 -290 0 c-259 0
-289 -2 -289 -16z"/>
</g>
</svg>
